<svg width="216" height="51" viewBox="0 0 216 51" fill="none" xmlns="http://www.w3.org/2000/svg">
<path d="M63.427 28.0655C63.427 26.3855 63.767 24.9155 64.447 23.6555C65.127 22.3755 66.057 21.3855 67.237 20.6855C68.437 19.9855 69.767 19.6355 71.227 19.6355C72.667 19.6355 73.917 19.9455 74.977 20.5655C76.037 21.1855 76.827 21.9655 77.347 22.9055V19.9055H80.107V36.3455H77.347V33.2855C76.807 34.2455 75.997 35.0455 74.917 35.6855C73.857 36.3055 72.617 36.6155 71.197 36.6155C69.737 36.6155 68.417 36.2555 67.237 35.5355C66.057 34.8155 65.127 33.8055 64.447 32.5055C63.767 31.2055 63.427 29.7255 63.427 28.0655ZM77.347 28.0955C77.347 26.8555 77.097 25.7755 76.597 24.8555C76.097 23.9355 75.417 23.2355 74.557 22.7555C73.717 22.2555 72.787 22.0055 71.767 22.0055C70.747 22.0055 69.817 22.2455 68.977 22.7255C68.137 23.2055 67.467 23.9055 66.967 24.8255C66.467 25.7455 66.217 26.8255 66.217 28.0655C66.217 29.3255 66.467 30.4255 66.967 31.3655C67.467 32.2855 68.137 32.9955 68.977 33.4955C69.817 33.9755 70.747 34.2155 71.767 34.2155C72.787 34.2155 73.717 33.9755 74.557 33.4955C75.417 32.9955 76.097 32.2855 76.597 31.3655C77.097 30.4255 77.347 29.3355 77.347 28.0955ZM91.5004 19.6355C92.9204 19.6355 94.1604 19.9455 95.2204 20.5655C96.3004 21.1855 97.1004 21.9655 97.6204 22.9055V19.9055H100.38V36.7055C100.38 38.2055 100.06 39.5355 99.4204 40.6955C98.7804 41.8755 97.8604 42.7955 96.6604 43.4555C95.4804 44.1155 94.1004 44.4455 92.5204 44.4455C90.3604 44.4455 88.5604 43.9355 87.1204 42.9155C85.6804 41.8955 84.8304 40.5055 84.5704 38.7455H87.2704C87.5704 39.7455 88.1904 40.5455 89.1304 41.1455C90.0704 41.7655 91.2004 42.0755 92.5204 42.0755C94.0204 42.0755 95.2404 41.6055 96.1804 40.6655C97.1404 39.7255 97.6204 38.4055 97.6204 36.7055V33.2555C97.0804 34.2155 96.2804 35.0155 95.2204 35.6555C94.1604 36.2955 92.9204 36.6155 91.5004 36.6155C90.0404 36.6155 88.7104 36.2555 87.5104 35.5355C86.3304 34.8155 85.4004 33.8055 84.7204 32.5055C84.0404 31.2055 83.7004 29.7255 83.7004 28.0655C83.7004 26.3855 84.0404 24.9155 84.7204 23.6555C85.4004 22.3755 86.3304 21.3855 87.5104 20.6855C88.7104 19.9855 90.0404 19.6355 91.5004 19.6355ZM97.6204 28.0955C97.6204 26.8555 97.3704 25.7755 96.8704 24.8555C96.3704 23.9355 95.6904 23.2355 94.8304 22.7555C93.9904 22.2555 93.0604 22.0055 92.0404 22.0055C91.0204 22.0055 90.0904 22.2455 89.2504 22.7255C88.4104 23.2055 87.7404 23.9055 87.2404 24.8255C86.7404 25.7455 86.4904 26.8255 86.4904 28.0655C86.4904 29.3255 86.7404 30.4255 87.2404 31.3655C87.7404 32.2855 88.4104 32.9955 89.2504 33.4955C90.0904 33.9755 91.0204 34.2155 92.0404 34.2155C93.0604 34.2155 93.9904 33.9755 94.8304 33.4955C95.6904 32.9955 96.3704 32.2855 96.8704 31.3655C97.3704 30.4255 97.6204 29.3355 97.6204 28.0955ZM112.164 36.6155C110.624 36.6155 109.224 36.2655 107.964 35.5655C106.724 34.8655 105.744 33.8755 105.024 32.5955C104.324 31.2955 103.974 29.7955 103.974 28.0955C103.974 26.4155 104.334 24.9355 105.054 23.6555C105.794 22.3555 106.794 21.3655 108.054 20.6855C109.314 19.9855 110.724 19.6355 112.284 19.6355C113.844 19.6355 115.254 19.9855 116.514 20.6855C117.774 21.3655 118.764 22.3455 119.484 23.6255C120.224 24.9055 120.594 26.3955 120.594 28.0955C120.594 29.7955 120.214 31.2955 119.454 32.5955C118.714 33.8755 117.704 34.8655 116.424 35.5655C115.144 36.2655 113.724 36.6155 112.164 36.6155ZM112.164 34.2155C113.144 34.2155 114.064 33.9855 114.924 33.5255C115.784 33.0655 116.474 32.3755 116.994 31.4555C117.534 30.5355 117.804 29.4155 117.804 28.0955C117.804 26.7755 117.544 25.6555 117.024 24.7355C116.504 23.8155 115.824 23.1355 114.984 22.6955C114.144 22.2355 113.234 22.0055 112.254 22.0055C111.254 22.0055 110.334 22.2355 109.494 22.6955C108.674 23.1355 108.014 23.8155 107.514 24.7355C107.014 25.6555 106.764 26.7755 106.764 28.0955C106.764 29.4355 107.004 30.5655 107.484 31.4855C107.984 32.4055 108.644 33.0955 109.464 33.5555C110.284 33.9955 111.184 34.2155 112.164 34.2155Z" fill="white"/>
<ellipse cx="27.1233" cy="25.5" rx="27.1233" ry="25.5" fill="#007CED"/>
<path d="M41.7794 14.6077C41.7794 14.8241 41.7053 15.0178 41.5572 15.1887C41.4091 15.3596 41.2268 15.4622 41.0103 15.4963C39.8824 15.6672 38.7602 15.7698 37.6436 15.804C37.131 17.6269 36.5898 19.2276 36.0201 20.6062C35.4504 21.9848 34.9036 23.1697 34.3795 24.1609C33.8668 25.1407 33.3997 25.9268 32.9781 26.5193C32.568 27.1117 32.2603 27.5333 32.0553 27.7839V36.7732C33.0351 36.8074 34.0263 36.8757 35.0289 36.9783C35.2568 37.0125 35.4448 37.115 35.5929 37.2859C35.7524 37.4568 35.8321 37.6562 35.8321 37.884C35.8321 38.1689 35.7296 38.3853 35.5245 38.5334C35.3194 38.693 35.12 38.7727 34.9264 38.7727H34.8067C34.1117 38.6816 33.4054 38.6132 32.6876 38.5676C31.9812 38.5334 31.2691 38.5164 30.5514 38.5164C29.3665 38.5164 28.1987 38.5733 27.0479 38.6873C25.8972 38.8126 24.7522 38.9892 23.6129 39.217H23.442C23.1913 39.217 22.9749 39.1259 22.7926 38.9436C22.6217 38.7727 22.5362 38.5733 22.5362 38.3455C22.5362 38.129 22.6046 37.941 22.7413 37.7815C22.878 37.6106 23.0546 37.4967 23.2711 37.4397C23.7496 37.3486 24.2281 37.2631 24.7066 37.1833C25.1852 37.1036 25.6751 37.0352 26.1764 36.9783V29.5613C25.3902 28.8207 24.6269 28.0061 23.8863 27.1174C23.1572 26.2174 22.4679 25.3059 21.8185 24.3831C21.169 23.4602 20.5652 22.5487 20.0069 21.6487C19.4601 20.7372 18.9701 19.8941 18.5372 19.1194C18.1043 18.3446 17.734 17.6667 17.4264 17.0857C17.1301 16.5046 16.908 16.066 16.7599 15.7698C16.3383 15.7356 15.9168 15.7014 15.4952 15.6672C15.0737 15.6217 14.6521 15.5647 14.2306 15.4963C14.0027 15.4622 13.8204 15.3596 13.6837 15.1887C13.5356 15.0178 13.4615 14.8241 13.4615 14.6077C13.4615 14.3114 13.5641 14.0893 13.7691 13.9412C13.9742 13.7817 14.1736 13.7019 14.3673 13.7019H14.4869C15.4895 13.8614 16.475 13.981 17.4435 14.0608C18.4233 14.1292 19.3974 14.1633 20.3658 14.1633C21.3342 14.1633 22.2913 14.1292 23.2369 14.0608C24.1939 13.981 25.151 13.8614 26.108 13.7019H26.2105C26.4726 13.7019 26.6891 13.7931 26.86 13.9753C27.0309 14.1576 27.1163 14.3684 27.1163 14.6077C27.1163 14.8241 27.0422 15.0178 26.8941 15.1887C26.7574 15.3596 26.5751 15.4622 26.3473 15.4963C25.9143 15.5647 25.47 15.6274 25.0143 15.6843C24.5585 15.7299 24.1028 15.7698 23.6471 15.804C23.9433 16.3508 24.3364 17.0458 24.8263 17.8889C25.3276 18.7206 25.8972 19.615 26.5352 20.572C27.1847 21.5177 27.891 22.4747 28.6544 23.4431C29.4177 24.4115 30.221 25.3059 31.0641 26.1262C31.3147 25.7958 31.6223 25.3401 31.9869 24.759C32.3515 24.1666 32.7446 23.4431 33.1661 22.5886C33.5877 21.7341 34.0263 20.7429 34.482 19.615C34.9378 18.4757 35.3764 17.1939 35.7979 15.7698C35.2511 15.747 34.7099 15.7185 34.1744 15.6843C33.6389 15.6501 33.1034 15.5875 32.568 15.4963C32.3401 15.4622 32.1521 15.3596 32.004 15.1887C31.8673 15.0178 31.7989 14.8241 31.7989 14.6077C31.7989 14.3342 31.8958 14.1178 32.0894 13.9583C32.2945 13.7874 32.4939 13.7019 32.6876 13.7019H32.8243C33.4965 13.8044 34.1573 13.8842 34.8067 13.9412C35.4675 13.9981 36.134 14.0266 36.8062 14.0266C37.4784 14.0266 38.1393 13.9981 38.7887 13.9412C39.4381 13.8842 40.0875 13.8044 40.7369 13.7019H40.8736C41.1129 13.7019 41.3237 13.7987 41.506 13.9924C41.6882 14.1747 41.7794 14.3798 41.7794 14.6077Z" fill="white"/>
</svg>
